/* XPM */
static char *_080fc215cb04a64b38393ff4d7556a3FX6NyvstuNZ5noOb[] = {
/* columns rows colors chars-per-pixel */
"16 16 7 1 ",
"  c #1C1117",
". c #301D27",
"X c #38262D",
"o c #422835",
"O c #523A42",
"+ c #756760",
"@ c #88776F",
/* pixels */
"++++++++ +++ +++",
"@@@@@@O@ @@@ @@@",
"OOOOOOOO OOO OOO",
"oooooooo ooo ooo",
"oooo.ooo oo. ooo",
"                ",
".OO OOOOOO OOOOO",
"ooo oooooo ooooo",
"ooo oooooo o.ooo",
"                ",
"OOOOOO OOOOOO XO",
"oooooo oooooo oo",
"oo.ooo oooooo oo",
"                ",
"OOO OOOOO OOOOOO",
"ooo ooooo oooooo"
};
