/* XPM */
static char *_1f06dad5c25499eab24e448e22e83f8WOE6gYP4Eorsk91M[] = {
/* columns rows colors chars-per-pixel */
"16 16 85 1 ",
"  c None",
". c #1D1118",
"X c #1F1319",
"o c #1F131A",
"O c #20131A",
"+ c #201419",
"@ c #211519",
"# c #231719",
"$ c #20141B",
"% c #21141B",
"& c #21151B",
"* c #22141B",
"= c #23171A",
"- c #22151C",
"; c #23151D",
": c #22161C",
"> c #23161D",
", c #23171D",
"< c #24151D",
"1 c #24171D",
"2 c #25171E",
"3 c #26171E",
"4 c #24181A",
"5 c #25181A",
"6 c #27191A",
"7 c #25181C",
"8 c #25181F",
"9 c #27181F",
"0 c #291B1B",
"q c #2D1E1E",
"w c #271820",
"e c #221C24",
"r c #221D25",
"t c #281821",
"y c #281A21",
"u c #2D1D24",
"i c #301E26",
"p c #331F2A",
"a c #341F29",
"s c #282126",
"d c #312120",
"f c #302321",
"g c #352322",
"h c #352422",
"j c #302027",
"k c #332725",
"l c #382624",
"z c #3F2D24",
"x c #322228",
"c c #35202A",
"v c #36212B",
"b c #36212C",
"n c #36252C",
"m c #39222D",
"M c #38232D",
"N c #39222E",
"B c #3A232F",
"V c #3A282F",
"C c #282B36",
"Z c #3C2630",
"A c #3D2631",
"S c #3F2633",
"D c #3D2A31",
"F c #3D2932",
"G c #3E2A32",
"H c #3E2B32",
"J c #31363E",
"K c #4F3727",
"L c #543D29",
"P c #402833",
"I c #412B34",
"U c #422D35",
"Y c #422C36",
"T c #432E36",
"R c #4A313B",
"E c #5B432C",
"W c #5C422C",
"Q c #725335",
"! c #755637",
"~ c #7A5838",
"^ c #7C5B3C",
"/ c #323740",
"( c #313D4A",
") c #384B5B",
"_ c #3F5A6C",
/* pixels */
"     ;y;y=w     ",
"  yDYiA9Z,ZuTy  ",
" ;AOO      ;;no ",
" Dq=         =Y ",
"ybW6          wo",
"xd~6          9R",
"aCK6          ;N",
"i_k6          =n",
"a=L5          ;N",
"Vg^=          =V",
"vg!/r         Ob",
"DlQJr         ;D",
"N(zs          ;p",
"3)d5          ;Y",
"D;E4          ;D",
"O=0           oO"
};
