/* XPM */
static char *result[] = {
/* columns rows colors chars-per-pixel */
"15 16 5 1 ",
"  c #1C1117",
". c #5A3173",
"X c #753C86",
"o c #944A9C",
"O c None",
/* pixels */
"OOOOOOOOOOOOOOO",
"OOOOOOOOOOOOOOO",
"OOOOOOOOOOOOOOO",
"OOOOOOOOOOOOOOO",
"OOOOOOOOOOOOOOO",
"OOOOOOOOOOOOOOO",
"OOOO       OOOO",
"OOO ooooo.X OOO",
"OOO  oo  o. OOO",
"OOO  oo  o. OOO",
"OO XX.o.Xoo. OO",
"OO  X o X o. OO",
"O X   .   . . O",
"O X o o X.o.. O",
"O             O",
"OOOOOOOOOOOOOOO"
};
