/* XPM */
static char *result[] = {
/* columns rows colors chars-per-pixel */
"16 16 10 1 ",
"  c black",
". c #5E3643",
"X c #5A5353",
"o c #7A444A",
"O c #7D7071",
"+ c #A05B53",
"@ c #BF7958",
"# c #E0A36F",
"$ c #A0938E",
"% c None",
/* pixels */
"%%%%%......%%%%%",
"%%%..@@@@@@..%%%",
"%..@+@@@@@@+@..%",
".@+@+@@@@@@+@+@.",
".@+@+######+@+@.",
".++##o+o+o+##++.",
".##o+o+o+o+o+##.",
" o+o+o+o+o+o+o+ ",
" o+o+o+o+o+oOo+ ",
"O$Xo+o+o+o+O$O+ ",
"XXXo+o+o+oOXOXO ",
" ooo+o+o+oOoXoO ",
" o+o+o+o+oXOOOX ",
"O$Xo+o+o+o+XXX+ ",
"XXXo+o+o+o+ooo+ ",
" ooo+o+o+o+o+o+ "
};
