/* XPM */
static char *_19528c8ae49454af4f62d65784186c6lLiOluwt0mY8zrT3[] = {
/* columns rows colors chars-per-pixel */
"16 16 7 1 ",
"  c None",
". c #1C1117",
"X c #3B1A1A",
"o c #7A3333",
"O c #9F5A3A",
"+ c #BF7B3F",
"@ c #DBC244",
/* pixels */
"                ",
"                ",
"                ",
"                ",
"         ...    ",
"       ..oo.    ",
"     ..O++.     ",
"    .O++++.     ",
"   .++++++.     ",
"   .X++XX+o.    ",
"   .X++XX+@.    ",
"   .+++++@+.    ",
"   .@+@+@+@.    ",
"    .@@@@@.     ",
"     .....      ",
"                "
};
