/* XPM */
static char *_9a179155d8144389e21edea3a789b07pF56g1l2lY6gTI6b[] = {
/* columns rows colors chars-per-pixel */
"16 16 160 2 ",
"   c None",
".  c #1F131A",
"X  c #20141A",
"o  c #23151C",
"O  c #22161C",
"+  c #23171D",
"@  c #24151D",
"#  c #24171D",
"$  c #24161E",
"%  c #25161E",
"&  c #25171E",
"*  c #26191C",
"=  c #26181F",
"-  c #291B1D",
";  c #2B1E1C",
":  c #2C1D1F",
">  c #31211E",
",  c #31221E",
"<  c #31221F",
"1  c #271820",
"2  c #221C23",
"3  c #2A1B22",
"4  c #2B1C23",
"5  c #291F23",
"6  c #2D1D20",
"7  c #2C1D24",
"8  c #2D1D25",
"9  c #2F1E26",
"0  c #2F1F26",
"q  c #301D27",
"w  c #301F27",
"e  c #27252D",
"r  c #2D272B",
"t  c #332220",
"y  c #332320",
"u  c #352420",
"i  c #352226",
"p  c #382720",
"a  c #382722",
"s  c #392723",
"d  c #392821",
"f  c #3C2B21",
"g  c #3D2C22",
"h  c #3E2C22",
"j  c #34202A",
"k  c #35202B",
"l  c #34232A",
"z  c #35242B",
"x  c #36212C",
"c  c #37212C",
"v  c #37222C",
"b  c #36252C",
"n  c #39232E",
"m  c #39242E",
"M  c #38252E",
"N  c #39262E",
"B  c #3C2530",
"V  c #3F2732",
"C  c #312E31",
"Z  c #3F2933",
"A  c #2B323D",
"S  c #493526",
"D  c #453229",
"F  c #4F392A",
"G  c #513B29",
"H  c #573F2A",
"J  c #563E2B",
"K  c #402934",
"L  c #402A34",
"P  c #442E37",
"I  c #452E38",
"U  c #452F38",
"Y  c #462F38",
"T  c #57402B",
"R  c #5A4028",
"E  c #5B4128",
"W  c #5E432A",
"Q  c #5B432F",
"!  c #5E442D",
"~  c #5C4331",
"^  c #61452A",
"/  c #62462B",
"(  c #60452C",
")  c #60462D",
"_  c #64482D",
"`  c #65492D",
"'  c #664A2E",
"]  c #694B2D",
"[  c #694B2E",
"{  c #694B2F",
"}  c #654A30",
"|  c #664B30",
" . c #674B30",
".. c #6B4E31",
"X. c #6B4D32",
"o. c #6D4E31",
"O. c #6C4F32",
"+. c #6F5131",
"@. c #6D5033",
"#. c #6F5032",
"$. c #6F5132",
"%. c #6F5133",
"&. c #6F5134",
"*. c #6E5035",
"=. c #6E5135",
"-. c #6F5236",
";. c #705030",
":. c #705131",
">. c #715131",
",. c #725131",
"<. c #705032",
"1. c #705132",
"2. c #715232",
"3. c #705233",
"4. c #735333",
"5. c #715334",
"6. c #725334",
"7. c #735435",
"8. c #755434",
"9. c #745435",
"0. c #745535",
"q. c #755535",
"w. c #765534",
"e. c #755635",
"r. c #755536",
"t. c #755636",
"y. c #765636",
"u. c #775736",
"i. c #765637",
"p. c #775737",
"a. c #795737",
"s. c #785836",
"d. c #795836",
"f. c #795937",
"g. c #7A5937",
"h. c #755639",
"j. c #775638",
"k. c #765738",
"l. c #775738",
"z. c #775839",
"x. c #785838",
"c. c #795838",
"v. c #785839",
"b. c #7B5939",
"n. c #7A593A",
"m. c #7C5B39",
"M. c #7D5B39",
"N. c #7C5B3A",
"B. c #7E5C3A",
"V. c #7F5C3B",
"C. c #303842",
"Z. c #39434E",
"A. c #364554",
"S. c #3A4C5C",
"D. c #3A5060",
"F. c #3C5262",
"G. c #405869",
"H. c #405D6F",
"J. c #83603E",
"K. c #4B6D83",
/* pixels */
"                                ",
"      7 N 7 Y 7 Y 7 P + +       ",
"    I 1 i t t > y > t N Z j     ",
"  7 6 H &.X.e.6.5.%.&.{ S 7 +   ",
"% K G W J.X.e.6.h.,.h.e.' - l   ",
"% : e.W J.X.f.%.n.,.X.a.| F l % ",
"K 5 X.! V.` m.%.n.e.X.,.&.9.l % ",
"= H.F.A V.^ m.5.h.a.X.e.| e.1 X ",
"N 2 h f f.' V.,.e.h.&.h.| h.v % ",
"j u u.{ f.@.u.{ 6.,.Q r p &.3 X ",
"N u ,.{ V.%.e.{ e.%.Z.F.K.~ l @ ",
"b d 0.W J.{ 4.{ e.,.C S.A.~ 7 o ",
"B A D d J.X.u.%.u.,.E - h n.q o ",
"o D.C.e V.X.f.e.5.u.^ ,.&.z.b o ",
"K = R T V.) { 6.,.e.` f.) { v o ",
"                                "
};
