/* XPM */
static char *result[] = {
/* columns rows colors chars-per-pixel */
"16 16 11 1 ",
"  c #1C1117",
". c #151932",
"X c #355261",
"o c #BB5533",
"O c #CC7733",
"+ c #AF8055",
"@ c #CB9F76",
"# c #487085",
"$ c #5A8CA6",
"% c #CCCCBE",
"& c None",
/* pixels */
"&&&&&&&&&&&&&&&&",
"   &&&&&&&&&&   ",
" %%          %% ",
" %%%#######$$ % ",
"& %%#########$ &",
"& ###     #    &",
"& ##  @@@ # @ &&",
"& ## @@.. # . &&",
"&    @@.. # . &&",
"&& oOO@++ $ + &&",
"&& oOOOOO   o &&",
"&& XXXoOOOOOO &&",
"&& ###XoOOOOO &&",
"&& ####XXOOOX &&",
"&& X        X &&",
"&&   &&&&&&   &&"
};
