/* XPM */
static char *result[] = {
/* columns rows colors chars-per-pixel */
"16 16 10 1 ",
"  c black",
". c #5E3643",
"X c #5A5353",
"o c #7A444A",
"O c #7D7071",
"+ c #A05B53",
"@ c #BF7958",
"# c #E0A36F",
"$ c #A0938E",
"% c None",
/* pixels */
"%%%%%%%%%%%%%%%%",
"..%%%%%%%%%%%%%%",
"+@..%%%%%%%%%%%%",
"+@+@.%%%%%%%%%%%",
"+@+@.%%%%%%%%%%%",
"##++.%%%%%%%%%%%",
"o+##.%%%%%%%%%%%",
"o+o+ %%%%%%%%%%%",
"oOo+ %%%%%%%%%%%",
"O$O+ %%%%%%%%%%%",
"XOXO %%%%%%%%%%%",
"oXoO +@+@+@+@+@+",
"OOOX +@+@+@+@+@+",
"XXX+ +@+@+@+@+@+",
"ooo+ +@+@+@+@+@+",
"o+o+ +@+@+@+@+@+"
};
